<svg xmlns="http://www.w3.org/2000/svg" height="200px" viewBox="0 -960 960 960" width="200px">
  <defs>
    <filter id="shadow" x="-20%" y="-20%" width="140%" height="140%">
      <feGaussianBlur in="SourceAlpha" stdDeviation="8" result="blur"/>
      <feOffset in="blur" dx="6" dy="6" result="offsetBlur"/>
      <feFlood flood-color="rgba(0,0,0,0.3)" result="offsetColor"/>
      <feComposite in="offsetColor" in2="offsetBlur" operator="in" result="offsetBlur"/>
      <feBlend in="SourceGraphic" in2="offsetBlur" mode="normal"/>
    </filter>
    <linearGradient id="bgGradient" x1="0%" y1="0%" x2="100%" y2="100%">
      <stop offset="0%" stop-color="#FF6699" stop-opacity="1"/>
      <stop offset="100%" stop-color="#FF3366" stop-opacity="1"/>
    </linearGradient>
    <linearGradient id="blueGradient" x1="0%" y1="0%" x2="100%" y2="100%">
      <stop offset="0%" stop-color="#42A5F5" stop-opacity="1"/>
      <stop offset="100%" stop-color="#1E88E5" stop-opacity="1"/>
    </linearGradient>
  </defs>
  
  <rect x="0" y="-960" width="960" height="960" fill="url(#bgGradient)"/>
  
  <g filter="url(#shadow)" transform="translate(480,480) scale(0.8) translate(-480,-720)">
    <path fill="#FFFFFF" d="m425-272-88 55q-8 5-15.5.7-7.5-4.31-7.5-13.7v-110q0-9.39 7.5-13.7 7.5-4.3 15.5.7l88 55q7 4.5 7 12.75T425-272Zm95-313q-45.83 0-77.92-32.12-32.08-32.12-32.08-78T442.08-773q32.09-32 77.92-32h20q8 0 14 6t6 14q0 8-6 14t-14 6h-20q-29.17 0-49.58 20.38Q450-724.24 450-695.12t20.42 49.62Q490.83-625 520-625h20q8 0 14 6t6 14q0 8-6 14t-14 6h-20Zm160 0h-20q-8 0-14-6t-6-14q0-8 6-14t14-6h20q29.17 0 49.58-20.38Q750-665.76 750-694.88t-20.42-49.62Q709.17-765 680-765h-20q-8 0-14-6t-6-14q0-8 6-14t14-6h20q45.83 0 77.92 32.12 32.08 32.12 32.08 78T757.92-617q-32.09 32-77.92 32Zm-30-90H550q-8 0-14-6t-6-14q0-8 6-14t14-6h100q8 0 14 6t6 14q0 8-6 14t-14 6Zm3 265v-80h207v-370H340v370h-60v-370q0-24.75 17.63-42.38Q315.25-920 340-920h520q24.75 0 42.38 17.62Q920-884.75 920-860v390q0 24.75-17.62 42.37Q884.75-410 860-410H653ZM100-40q-24.75 0-42.37-17.63Q40-75.25 40-100v-370q0-24.75 17.63-42.38Q75.25-530 100-530h520q24.75 0 42.38 17.62Q680-494.75 680-470v370q0 24.75-17.62 42.37Q644.75-40 620-40H100Zm0-60h520v-370H100v370Zm500-575ZM360-285Z" />
    <path fill="#EADDFF" d="M180-180h103Zm600 0v-103q0-12.75 8.68-21.38 8.67-8.62 21.5-8.62 12.82 0 21.32 8.62 8.5 8.63 8.5 21.38v133q0 12.75-8.62 21.37Q822.75-120 810-120H677q-12.75 0-21.37-8.68-8.63-8.67-8.63-21.5 0-12.82 8.63-21.32 8.62-8.5 21.37-8.5h103ZM180-780v103q0 12.75-8.68 21.37-8.67 8.63-21.5 8.63-12.82 0-21.32-8.63-8.5-8.62-8.5-21.37v-133q0-12.75 8.63-21.38Q137.25-840 150-840h133q12.75 0 21.38 8.68 8.62 8.67 8.62 21.5 0 12.82-8.62 21.32-8.63 8.5-21.38 8.5H180Z" />
  </g>
  
  <path d="M700,-210 Q700,-260 750,-260 H2700 V1740 H700 V-160 Z" fill="url(#blueGradient)" rx="20" />
  
  <g transform="translate(640,-320) scale(4) translate(0,0)" filter="url(#shadow)">
    <path d="M 30,70 L 30,30 L 70,30" stroke="#ffffff" stroke-width="10" stroke-linecap="round" />
    <path d="M 30,30 L 50,30 L 50,50 L 30,50 Z" fill="#ffffff" />
    <path d="M 45,30 L 55,30 L 55,40 L 45,40 Z" fill="#1E88E5" />
    <line x1="50" y1="50" x2="70" y2="70" stroke="#ffffff" stroke-width="10" stroke-linecap="round" />
    <path d="M 70,70 L 50,70 L 50,50 L 70,50" stroke="#ffffff" stroke-width="10" stroke-linecap="round" />
    <path d="M 50,55 L 60,55 L 60,45 L 50,45 Z" fill="#1E88E5" />
  </g>
</svg>